<?xml version="1.0" standalone="no"?>
<!DOCTYPE svg PUBLIC "-//W3C//DTD SVG 20010904//EN"
 "http://www.w3.org/TR/2001/REC-SVG-20010904/DTD/svg10.dtd">
<svg version="1.0" xmlns="http://www.w3.org/2000/svg"
 width="964.000000pt" height="832.000000pt" viewBox="0 0 964.000000 832.000000"
 preserveAspectRatio="xMidYMid meet">

<g transform="translate(0.000000,832.000000) scale(0.100000,-0.100000)"
fill="#000000" stroke="none">
<path d="M2090 6782 c-106 -81 -292 -270 -378 -384 -480 -641 -566 -1483 -223
-2192 88 -181 204 -351 354 -518 l81 -90 44 46 c24 25 74 71 112 102 l70 56
-66 72 c-498 541 -626 1202 -369 1892 118 315 312 590 550 779 33 26 61 49 63
50 2 2 -19 36 -45 77 -26 40 -59 95 -73 121 -14 26 -29 47 -35 47 -5 -1 -44
-27 -85 -58z"/>
<path d="M2807 5674 l34 -126 -19 -81 -19 -82 -12 69 c-7 38 -19 85 -27 104
-18 44 -19 42 15 42 l29 0 -21 55 c-19 48 -25 55 -46 53 -38 -5 -44 -47 -21
-139 26 -100 25 -121 -2 -41 -12 35 -24 59 -28 55 -11 -12 -57 -214 -77 -338
-13 -78 -18 -166 -17 -305 0 -203 14 -329 56 -497 l20 -82 74 67 c41 37 86 85
100 106 l26 39 -58 -48 c-33 -26 -63 -53 -67 -61 -4 -8 -13 -14 -19 -14 -7 0
-1 12 13 28 41 45 143 185 128 177 -8 -5 -38 -29 -68 -54 -55 -47 -58 -43 -14
17 14 18 44 75 68 125 l42 92 7 185 c9 238 8 253 -9 294 -8 20 -15 38 -15 41
0 8 44 -16 52 -29 18 -26 6 60 -16 112 -12 32 -26 76 -30 97 -9 49 -95 265
-106 265 -4 0 8 -57 27 -126z"/>
<path d="M2083 3689 c-49 -45 -96 -90 -107 -100 -10 -9 -15 -22 -11 -29 5 -8
20 1 49 28 22 21 74 65 114 97 69 55 81 74 54 83 -6 2 -51 -34 -99 -79z"/>
</g>
</svg>
